<svg xmlns="http://www.w3.org/2000/svg" xmlns:xlink="http://www.w3.org/1999/xlink" width="1366" height="82" viewBox="0 0 1366 82">
  <defs>
    <rect id="header-top-fitas-a" width="1366" height="82" x="0" y="0"/>
    <linearGradient id="header-top-fitas-c" x1="67.645%" x2="32.773%" y1="36.676%" y2="63.008%">
      <stop offset="0%" stop-color="#3F70FF"/>
      <stop offset="100%" stop-color="#2350D6"/>
    </linearGradient>
  </defs>
  <g fill="none" fill-rule="evenodd">
    <mask id="header-top-fitas-b" fill="#fff">
      <use xlink:href="#header-top-fitas-a"/>
    </mask>
    <g fill-rule="nonzero" mask="url(#header-top-fitas-b)">
      <g transform="translate(0 -99)">
        <polygon fill="#3CB61E" points="913 35 913 155.16 908.71 153.26 901.886 156 896.12 155.867 889.473 152.925 889.408 152.95 887.926 152.294 879.957 155.493 876.984 155.424 870.593 152.596 870.349 152.693 868.69 151.958 860.979 155.054 856.998 154.962 849.453 151.622 848.947 151.825 846.997 150.962 838.116 154.525 837.862 154.519 830.573 151.293 829.888 151.568 827.76 150.626 819.141 154.087 817.268 154.043 817.248 153.711 816.216 153.695 808.523 150.29 808.239 150.404 806.522 149.645 797.296 153.349 789.643 149.961 789.179 150.147 787.285 149.309 777.769 153.13 777.42 153.122 776.802 152.848 776.773 152.394 775.741 152.378 768.048 148.973 767.764 149.087 766.047 148.327 756.821 152.032 749.168 148.644 748.705 148.83 746.81 147.992 737.292 151.814 736.955 151.809 727.574 147.656 720 150.697 720.001 35" opacity=".9"/>
        <polygon fill="#23850B" points="964.145 15.607 1047 12 1047 191 947 191" opacity=".9" transform="rotate(-90 997 101.5)"/>
        <polygon fill="url(#header-top-fitas-c)" points="1120.047 .167 1220.897 5.268 1216.194 20.471 1220.135 44.838 1220.032 46.347 1212.735 69.936 1216.73 94.632 1216.67 95.496 1209.276 119.401 1213.267 144.075 1205.882 167.949 1209.437 189.934 1107.999 184.804" opacity=".9" transform="rotate(87 1164.448 95.05)"/>
        <polygon fill="#4053D8" points="240.048 -11 367.288 -4.517 362.586 10.688 366.527 35.054 366.423 36.564 359.127 60.152 363.121 84.848 363.062 85.712 355.668 109.617 359.659 134.292 352.274 158.165 355.829 180.15 228 173.637" opacity=".9" transform="rotate(81 297.644 84.575)"/>
        <polygon fill="#FCCE00" points="110.145 44.607 193 41 193 220 93 220" opacity=".9" transform="rotate(-90 143 130.5)"/>
        <polygon fill="#EF4744" points="441 38.206 543 28 543 207 443.72 207" opacity=".9" transform="rotate(-90 492 117.5)"/>
        <path fill="#FCCE00" d="M614.942554,6 L705,6 L705,185 L605,185 C610.330391,148.785712 613.644576,118.994539 614.942554,95.6264823 C616.240533,72.2584254 616.240533,42.3829313 614.942554,6 Z" opacity=".9" transform="matrix(0 -1 -1 0 750.5 750.5)"/>
        <polygon fill="#080C2F" points="0 110.627 1366 98 1366 126 0 126" transform="rotate(-180 683 112)"/>
      </g>
    </g>
  </g>
</svg>
