<svg xmlns="http://www.w3.org/2000/svg" width="24" height="24" viewBox="0 0 24 24">
  <g fill="none" fill-rule="evenodd">
    <polygon points="0 0 24 0 24 24 0 24"/>
    <path fill="#4053D8" d="M20.71,5.63 L18.37,3.29 C17.98,2.9 17.35,2.9 16.96,3.29 L13.84,6.41 L11.91,4.5 L10.5,5.91 L11.92,7.33 L3,16.25 L3,21 L7.75,21 L16.67,12.08 L18.09,13.5 L19.5,12.09 L17.58,10.17 L20.7,7.05 C21.1,6.65 21.1,6.02 20.71,5.63 L20.71,5.63 Z M6.92,19 L5,17.08 L13.06,9.02 L14.98,10.94 L6.92,19 L6.92,19 Z"/>
  </g>
</svg>
