<svg xmlns="http://www.w3.org/2000/svg" xmlns:xlink="http://www.w3.org/1999/xlink" width="48" height="44" viewBox="0 0 48 44">
  <defs>
    <rect id="register-ribbon-footer-a" width="48" height="44" x="0" y="0"/>
  </defs>
  <g fill="none" fill-rule="evenodd">
    <mask id="register-ribbon-footer-b" fill="#fff">
      <use xlink:href="#register-ribbon-footer-a"/>
    </mask>
    <path fill="#4053D8" fill-rule="nonzero" d="M-95.7199548,61.1498694 C-53.8913803,60.6365836 -18.4667593,61.4446908 10.5539083,63.5741908 C38.7998994,65.6468461 61.0322688,68.6201573 77.2510165,72.4941243 L75.5109019,75.0290793 L77.1142169,78.9089394 L77.0908563,79.1407675 L74.714922,82.6023225 L76.3398584,86.534772 L76.3258515,86.6680379 L73.918942,90.1755657 L75.407,93.7753327 L75.305,94.4493327 L73.1377025,97.6085637 L74.376,100.606333 L74.2918508,101.170137 C58.1994418,97.1585997 35.9314164,94.0895936 7.4877746,91.9631197 L6.2822553,91.8738296 C-22.7384123,89.7443296 -58.1658308,88.9547552 -100,89.5051067 L-100,89.5051067 L-95.7199548,61.1498694 Z" mask="url(#register-ribbon-footer-b)" opacity=".9" transform="scale(1 -1) rotate(54 147.764 0)"/>
  </g>
</svg>
